<?xml version="1.0" encoding="UTF-8"?>
<svg xmlns="http://www.w3.org/2000/svg" id="a" width="865.76" height="682.89" viewBox="0 0 865.76 682.89">
  <g>
    <path d="M393.04,183.78h-102.65c-5.62,0-10.18,4.56-10.18,10.18v58.65c0,5.62,4.56,10.18,10.18,10.18h8.82v19l15.2-19h78.62c5.62,0,10.18-4.56,10.18-10.18v-58.65c0-5.62-4.56-10.18-10.18-10.18Z" fill="#fff" stroke="#002346" stroke-miterlimit="10"></path>
    <g>
      <rect x="735.06" y="583.78" width="18.51" height="33.38" fill="#e3e4e5" stroke="#002346" stroke-miterlimit="10"></rect>
      <rect x="816.87" y="583.78" width="18.51" height="33.38" fill="#e3e4e5" stroke="#002346" stroke-miterlimit="10"></rect>
      <path d="M694.37,383.69h147.76c3.08,0,5.58,2.5,5.58,5.58v188.94c0,3.08-2.5,5.58-5.58,5.58h-147.76v-200.11Z" fill="#e3e4e5" stroke="#002346" stroke-miterlimit="10"></path>
      <rect x="666.28" y="383.69" width="149.36" height="200.11" rx="5.58" ry="5.58" fill="#fff" stroke="#002346" stroke-miterlimit="10"></rect>
      <rect x="679.48" y="583.78" width="18.51" height="33.38" fill="#fff" stroke="#002346" stroke-miterlimit="10"></rect>
      <rect x="785.94" y="583.78" width="18.51" height="33.38" fill="#fff" stroke="#002346" stroke-miterlimit="10"></rect>
      <g>
        <path d="M676.32,437.83v-38.59c0-3.31,2.69-6,6-6h117.29c3.31,0,6,2.69,6,6v38.59c0,3.31-2.69,6-6,6h-117.29c-3.31,0-6-2.69-6-6Z" fill="#e3e4e5" stroke="#002346" stroke-miterlimit="10"></path>
        <circle cx="740.97" cy="418.54" r="6" fill="#fff" stroke="#002346" stroke-miterlimit="10"></circle>
      </g>
      <g>
        <path d="M676.32,501.99v-38.59c0-3.31,2.69-6,6-6h117.29c3.31,0,6,2.69,6,6v38.59c0,3.31-2.69,6-6,6h-117.29c-3.31,0-6-2.69-6-6Z" fill="#e3e4e5" stroke="#002346" stroke-miterlimit="10"></path>
        <circle cx="740.97" cy="482.7" r="6" fill="#fff" stroke="#002346" stroke-miterlimit="10"></circle>
      </g>
      <g>
        <path d="M676.32,566.15v-38.59c0-3.31,2.69-6,6-6h117.29c3.31,0,6,2.69,6,6v38.59c0,3.31-2.69,6-6,6h-117.29c-3.31,0-6-2.69-6-6Z" fill="#e3e4e5" stroke="#002346" stroke-miterlimit="10"></path>
        <circle cx="740.97" cy="546.86" r="6" fill="#fff" stroke="#002346" stroke-miterlimit="10"></circle>
      </g>
    </g>
    <path d="M680.39,458.03c6.5-.09,6.5,10.11,0,10.01-6.49,.09-6.5-10.11,0-10.01Z" fill="#fff"></path>
    <path d="M680.39,526.57c6.5-.09,6.5,10.11,0,10.01-6.49,.09-6.5-10.11,0-10.01Z" fill="#fff"></path>
    <rect x="653.93" y="440.58" width="43.42" height="6.47" fill="#ecab73"></rect>
    <rect x="653.93" y="440.58" width="43.42" height="6.47" opacity=".2"></rect>
    <path d="M657.7,519.87H127.39v-168.09c0-4.02,3.26-7.28,7.28-7.28H650.42c4.02,0,7.28,3.26,7.28,7.28v168.09Z" fill="#fff" stroke="#002346" stroke-miterlimit="10"></path>
    <path d="M640.39,496.69H144.7v-122.37c0-4.52,3.66-8.18,8.18-8.18h479.33c4.52,0,8.18,3.66,8.18,8.18v122.37Z" fill="#e5e5e5" stroke="#002346" stroke-miterlimit="10"></path>
    <polygon points="139.91 570.21 132.04 619.2 139.47 619.2 172.27 570.65 139.91 570.21" fill="#fff" stroke="#002346" stroke-miterlimit="10"></polygon>
    <polygon points="645.01 570.21 652.88 619.2 645.44 619.2 612.64 570.65 645.01 570.21" fill="#fff" stroke="#002346" stroke-miterlimit="10"></polygon>
    <path d="M682.99,429.27c.18-.05,.31,.17,.18,.3-.49,.49-.83,1.15-.93,1.89l-13.79,105.23c-1.35,10.27-10.09,17.94-20.45,17.94H133.3c-10.94,0-19.99-8.56-20.57-19.49l-5.58-101.87c-.07-1.37-1.03-2.51-2.31-2.82l23.06,3.41v86.01H657.7v-83.97l25.29-6.63Z" fill="#e5e5e5" stroke="#002346" stroke-miterlimit="10"></path>
    <path d="M715.27,441.24c-9.52,41.05,2.73,132.41-61.08,131.79,0,0-524.74,0-524.74,0-65.5-.22-49.56-88.54-56.21-130.64-.93-16.22,20.94-11.46,30.79-12.08,1.68,.06,3.01,1.24,3.13,2.95,0,0,5.58,101.87,5.58,101.87,.59,10.93,9.63,19.49,20.57,19.49H648c10.36,0,19.1-7.68,20.45-17.94l13.79-105.23c.09-1.73,1.74-2.64,3.23-2.84,9.34,.56,31.53-4.03,29.8,12.63Z" fill="#fff" stroke="#002346" stroke-miterlimit="10"></path>
    <path d="M387.32,492.82H113.82c.16-8.58-2.52-24.34,10.5-24.37,0,0,252.5,0,252.5,0,13.02,.13,10.38,15.68,10.5,24.37Z" fill="#e5e5e5" stroke="#002346" stroke-miterlimit="10"></path>
    <path d="M381.12,539.37H120.13c-3.48,0-6.31-2.82-6.31-6.31v-40.23H387.43v40.23c0,3.48-2.82,6.31-6.31,6.31Z" fill="#fff" stroke="#002346" stroke-miterlimit="10"></path>
    <path d="M667.64,492.82H391.75c.16-8.58-2.52-24.34,10.5-24.37,0,0,254.89,0,254.89,0,13.02,.13,10.38,15.68,10.5,24.37Z" fill="#e5e5e5" stroke="#002346" stroke-miterlimit="10"></path>
    <path d="M661.44,539.37H398.06c-3.48,0-6.31-2.82-6.31-6.31v-40.23h276v40.23c0,3.48-2.82,6.31-6.31,6.31Z" fill="#fff" stroke="#002346" stroke-miterlimit="10"></path>
    <path d="M387.65,178.71c.51,29.84,44.9,29.84,45.41,0-.51-29.84-44.9-29.84-45.41,0Z" fill="#fbe493" stroke="#002346" stroke-miterlimit="10"></path>
    <rect x="311.65" y="200.58" width="76.7" height="7.82" fill="#e5e5e5" stroke="#002346" stroke-miterlimit="10"></rect>
    <line x1="388.34" y1="219.85" x2="295.43" y2="219.85" fill="none" stroke="#002346" stroke-linecap="round" stroke-linejoin="round"></line>
    <line x1="388.34" y1="230.34" x2="295.43" y2="230.34" fill="none" stroke="#002346" stroke-linecap="round" stroke-linejoin="round"></line>
    <line x1="388.34" y1="241.59" x2="337.02" y2="241.59" fill="none" stroke="#002346" stroke-linecap="round" stroke-linejoin="round"></line>
    <path d="M386.65,539.83c-9.05,3.47-27.95,10.72-37.09,14.22l-35.44-66.78-5.69-3.93-84.52-58.39,5.71-22.32c22.2,2.54,67.6,4.85,90.06,5.05,14.76,3.43,58.22,114.73,66.98,132.15Z" fill="#fff"></path>
    <path d="M386.65,539.83c-9.31,3.39-27.92,10.51-37.09,14.22l-35.44-66.78-5.69-3.93-84.52-58.39,5.71-22.32c22.2,2.54,67.6,4.85,90.06,5.05,14.76,3.43,58.22,114.73,66.98,132.15Z" fill="#fbe493" stroke="#002346" stroke-miterlimit="10"></path>
    <path d="M272.99,355.95v51.04c-6.88,3.13-40.69,16.77-47.84,18.72-25.94,7.08-46.16,12.61-46.16,12.61-.2-5.12,8.08-16.75,8.08-16.75,4.98-7.16,15.54-44.18,16.55-47.68l-31.36-2.77c-1.73-23.07,7.66-44.61,23.39-48.39,6.73-3.01,19.47-2.21,19.47-2.21l19.09-1.14c28.81,17.68,21.43,8.62,38.79,36.57Z" fill="#f58f74" stroke="#002346" stroke-miterlimit="10"></path>
    <path d="M256.47,402.7v13.5l-49.06,3.08c-.56,.03-1.11,.12-1.66,.2-8.59,1.22-18.54-5.7-20.7-10.33-3.9-8.35-6.81-28.52-8.01-37.58l26.39,2.53c.07,0,.13,.07,.13,.14l.77,16.68c.14,2.98,1.74,5.75,4.35,7.19,3.84,2.1,8.63,1.66,8.63,1.66l39.17,2.94Z" fill="#f0b1bf" stroke="#002346" stroke-miterlimit="10"></path>
    <path d="M321.82,413.92l-97.29,5.47c-.28,.02-.51-.23-.47-.5,.52-3.35-.14-10.09,4.48-10.1,0,0,95.71-5.39,95.71-5.39-.51,.99-.44,10.84-2.44,10.53Z" fill="#e5e5e5" stroke="#002346" stroke-miterlimit="10"></path>
    <path d="M315.96,408.43l-56.91,2.72c-2.68,.13-4.79-2.25-4.34-4.89l7.91-46.84c.34-2.04,2.07-3.56,4.14-3.63l57.32-2.14c2.68-.1,4.77,2.31,4.29,4.95l-8.48,46.4c-.35,1.92-1.98,3.35-3.93,3.44Z" fill="#fff" stroke="#002346" stroke-miterlimit="10"></path>
    <path d="M301.92,385.54c.09,8.69-10.47,8.69-10.38,0-.09-8.69,10.47-8.69,10.38,0Z" fill="none" stroke="#ec1c24" stroke-miterlimit="10" stroke-width=".25"></path>
    <path d="M356.61,551.21l9.33,17.37s12.88-2.15,20.92-5.36l-6.32-20.94-23.94,8.94Z" fill="#f0b1bf" stroke="#002346" stroke-miterlimit="10"></path>
    <path d="M273.74,551.23v20.5s12.57,4.29,22.76,4.02l5.37-21.77-28.13-2.75Z" fill="#f0b1bf" stroke="#002346" stroke-miterlimit="10"></path>
    <path d="M340.71,608.59c-10.91,9.84-58.79-5.65-72.69-6.42-.45-3.47,1.81-9.65,1.81-9.65,2.42-5.89,1.2-13.56,1.2-13.56-.28-14.46,3.57-3.18,25.48-3.49,.57-.76,.79-7.72,2.99-5.13,3.29,6.56,12.51,19.09,12.51,19.09,2.31,4.92,5.88,8.6,9.05,11.11,4.67,5.47,17.24,3.78,19.66,8.06Z" fill="#f58f74" stroke="#002346" stroke-miterlimit="10"></path>
    <path d="M343.95,615.19c-11.97,11.7-67.1-2.55-76.65-4.11-5.34-1.29-.5-9.12,.72-8.92,13.22,.67,62.11,16.29,72.69,6.42,5.45,2.76,3.24,6.6,3.24,6.6Z" fill="#fff" stroke="#002346" stroke-miterlimit="10"></path>
    <path d="M391.99,600.95c-1.68,3.87-9.66,2.73-13.32,3.25-1.3-3.64,.4-7.6,.4-7.6,3.97,1.82,11.77,.88,12.92,4.35Z" fill="#fff" opacity=".2"></path>
    <path d="M217.36,302.41s3.02,10.56-2.24,18.11c0,0,4.23,14.79,14.79,15.69,0,0,6.34,0,5.13-10.26l-1.21-16.6-10-12.07-6.47,5.13Z" fill="#f0b1bf" stroke="#002346" stroke-miterlimit="10"></path>
    <path d="M254.66,292.41c.34,29.42-33.5,29.44-33.86,0,.43-29.33,33.43-29.33,33.86,0Z" fill="#f0b1bf" stroke="#002346" stroke-miterlimit="10"></path>
    <path d="M216.18,266.95c10.32-9.57,55.27-4.72,37.75,39.74-1.81,4.14-2.92,8.58-3.24,13.09-.31,4.25,.03,8.76,2.31,10.93-4.49-2.72-13.99-8.43-18.44-11.06l-.35-5.16c0-.1,.09-.19,.19-.15,1.41,.49,9.01,.29,11.85-2.57,3.38-2.42,5.4-6.33,5.74-10.46-.09-7.77,3.06-18.59-2.94-25.47-.35,.79-2.92,6.39-8.5,6.42,0,0,4.23-3.24,3.62-7.01,0,0-7.01,9.05-16.07,6.79,0,0-1.92,7.01-7.3,8.6-.47,1.61-2.98,10.17-3.44,11.77,0,0,3.12,10.41-2.24,18.12-23.87-1.66-39.32,9.82-42.85,37.41,0,0-15.7-5.43-10.87-26.25,1.58-16.35,24.85-15.9,37.89-28.6,4.7-4.57,7.17-10.91,7.41-17.46,.15-4.26,1.74-11.5,9.48-18.68Z" fill="#002346" stroke="#002346" stroke-miterlimit="10"></path>
    <path d="M223.83,297.28c.12,10.19-13.05,10.19-12.93,0-.12-10.19,13.05-10.19,12.93,0Z" fill="#f0b1bf" stroke="#002346" stroke-miterlimit="10"></path>
    <path d="M311.81,528.79c-1.18,5.06-6.52,27.61-6.52,27.61l-39.38-3.84,7.08-77.67c-11.58,2.6-19.24,5.49-28.28,10.08-20.95,11.53-50.05,6.97-59.54,5.03-29.11-5.55-12.06-44.19-6.18-51.67,123.19-35.72,161.33-32.16,132.82,90.47Z" fill="#fbe493" stroke="#002346" stroke-miterlimit="10"></path>
    <path d="M320.93,408.43c-73.49-.46-64.55,22.65-53.34-49.02,.34-2.04,2.55-3.98,4.62-4.05l56.24-2.42c2.68-.1,5.38,3.01,4.89,5.65l-8.48,46.4c-.35,1.92-1.98,3.35-3.93,3.44Z" fill="#fbe493" stroke="#002346" stroke-miterlimit="10"></path>
    <g>
      <rect x="399.44" y="170.61" width="21.82" height="16.2" rx="1.73" ry="1.73" fill="none" stroke="#002346" stroke-linecap="round" stroke-linejoin="round"></rect>
      <path d="M400.21,171.78c13.33,11.67,6.7,11.61,20,0" fill="none" stroke="#002346" stroke-linecap="round" stroke-linejoin="round"></path>
      <line x1="407.21" y1="178.78" x2="400.21" y2="185.78" fill="none" stroke="#002346" stroke-linecap="round" stroke-linejoin="round"></line>
      <line x1="413.21" y1="178.78" x2="420.21" y2="185.78" fill="none" stroke="#002346" stroke-linecap="round" stroke-linejoin="round"></line>
    </g>
    <g>
      <path d="M114.85,497.54c.05,9.35-76.21,8.85-76.74,.36-2.55-9.8,78.49-9.29,76.74-.36Z" fill="#f58f74" stroke="#002346" stroke-miterlimit="10"></path>
      <path d="M103.95,330.89c-16.59,36.49-40.85,25.69-24.86-11.06,16.58-36.49,40.85-25.69,24.86,11.06Z" fill="#7cd093" stroke="#002346" stroke-miterlimit="10"></path>
      <path d="M90.63,488.09c-13.12-2.46-8.21-17.64,3.84-25.49,0,0,12.17-8.69,21.39-6.11,8.85,4.24,5.5,12.95-2.83,20.52,0,0-11.02,11.33-22.4,11.08Z" fill="#7cd093" stroke="#002346" stroke-miterlimit="10"></path>
      <path d="M60.36,456.74c6.31,12.62-7.41,18.57-22.39,12.36,0,0-14.31-4.51-18.33-14.45-2.16-5.97,1.95-10.24,8.16-11.13,12.44-2.64,25.29,2.81,32.56,13.22Z" fill="#7cd093" stroke="#002346" stroke-miterlimit="10"></path>
      <path d="M84.76,450.18c-1.01-14.35,21.65-30.67,37.17-28.18,11.74,3.74,6.62,16.06-4.48,21.63-3.36,.06-29.52,23.22-32.7,6.55Z" fill="#7cd093" stroke="#002346" stroke-miterlimit="10"></path>
      <path d="M44,396.9c-7.72,7.3,4.36,28.03,13.3,39.05,3.91,4.83,13.91,7.83,17.35-.76,1.62-4.04,1.66-12.29-4.23-23.94-4.06-8.29-17.44-21.61-26.42-14.35Z" fill="#7cd093" stroke="#002346" stroke-miterlimit="10"></path>
      <path d="M50.12,389.75c-1.68-.88-3.55-2.19-5.61-4.03,0,0-6.57-5.04-14.28-7.68-2.65-.9-5.18-2.15-7.4-3.84-15.72-12.43,10.76-26.94,30.81-6.98,6.95,6.92,14.1,22.27,3.14,23.75-2.28,.31-4.61-.16-6.65-1.23Z" fill="#7cd093" stroke="#002346" stroke-miterlimit="10"></path>
      <path d="M49.74,338.17c-1.23,3.86-.98,9.51,3.66,17.43-.5-2.16,13.48,31.71,22.09,23,3.69-3.6,6.82-31.79-2.1-40.59-4.99-8.46-20.1-10.99-23.64,.15Z" fill="#7cd093" stroke="#002346" stroke-miterlimit="10"></path>
      <path d="M117.95,334.76c-10.07,3.31-25.78,15.86-32.74,36.03,2.76-5,13.94-12.51,23.25-16.84,5.62-2.72,22.25-14.11,14.71-18.67-1.56-.94-3.49-1.08-5.22-.51Z" fill="#7cd093" stroke="#002346" stroke-miterlimit="10"></path>
      <path d="M83.23,402.15c-.66-4.97-.35-13.46,6.1-23.25,3.65-5.53,8.53-10.13,14.15-13.64,6.48-4.05,15.52-7.93,19.64-1.52,7.08,11.01-26.06,53.31-37.9,42.41-1.13-1.04-1.79-2.49-2-4.01Z" fill="#7cd093" stroke="#002346" stroke-miterlimit="10"></path>
      <path d="M104.19,298.5c-29.33-4.36-26.48,173.23-27.74,206.12" fill="none" stroke="#002346" stroke-linecap="round" stroke-linejoin="round"></path>
      <path d="M119.79,459.38s-41.32,10.64-41.42,45.24" fill="none" stroke="#002346" stroke-linecap="round" stroke-linejoin="round"></path>
      <path d="M19.45,449.29c8.91-1.87,62.19,12.02,55.09,55.33" fill="none" stroke="#002346" stroke-linecap="round" stroke-linejoin="round"></path>
      <path d="M77.3,472.05s10.69-42.74,49.87-46.87" fill="none" stroke="#002346" stroke-linecap="round" stroke-linejoin="round"></path>
      <path d="M49.13,403.38s20.15,7.97,28.08,56.4" fill="none" stroke="#002346" stroke-linecap="round" stroke-linejoin="round"></path>
      <path d="M118.84,367.11s-35.86,21.5-40.41,61.24" fill="none" stroke="#002346" stroke-linecap="round" stroke-linejoin="round"></path>
      <path d="M23.7,364.92s48.12,14.34,54.52,54.87" fill="none" stroke="#002346" stroke-linecap="round" stroke-linejoin="round"></path>
      <path d="M53.4,333.9s17.93,22.78,25.81,68.88" fill="none" stroke="#002346" stroke-linecap="round" stroke-linejoin="round"></path>
      <path d="M120.79,336.96s-28.39,16.59-39.57,41.82" fill="none" stroke="#002346" stroke-linecap="round" stroke-linejoin="round"></path>
      <path d="M114.79,497.94l-11.51,73.38H49.24l-11.12-73.39c.57,8.6,76.07,8.59,76.67,0Z" fill="#f58f74" stroke="#002346" stroke-miterlimit="10"></path>
      <path d="M39.84,509.25s35.6,14.93,73.18,0c13.49,194.21,20.09,198.91-33.86,6.69h-5.1c-54.64,195.13-46.85,184.69-34.22-6.69Z" fill="none" stroke="#002346" stroke-linecap="round" stroke-linejoin="round"></path>
      <path d="M64.71,571.32c11.92,96.56,11.37,95.16,23.57,0" fill="none" stroke="#002346" stroke-linecap="round" stroke-linejoin="round"></path>
    </g>
    <ellipse cx="237.95" cy="290.96" rx=".87" ry="1.89" transform="translate(-16.96 14.74) rotate(-3.43)" fill="#002346" stroke="#002346" stroke-miterlimit="10"></ellipse>
    <ellipse cx="247.9" cy="291.18" rx=".87" ry="1.89" transform="translate(-16.96 15.33) rotate(-3.43)" fill="#002346" stroke="#002346" stroke-miterlimit="10"></ellipse>
    <path d="M243.65,292.87l2.21,6.63c.09,.36-.22,.69-.58,.64l-3.26-.47" fill="none" stroke="#002346" stroke-linecap="round" stroke-linejoin="round"></path>
    <path d="M235.64,287.63s1.53-1.7,3.51-.18" fill="none" stroke="#002346" stroke-linecap="round" stroke-linejoin="round"></path>
    <path d="M245.53,287.79s1.53-1.7,3.51-.18" fill="none" stroke="#002346" stroke-linecap="round" stroke-linejoin="round"></path>
    <path d="M240.61,304.03c.93,.58,3.07,1.66,5.48,1.21,.17-.03,.31,.14,.21,.29-.83,1.28-3.65,4.88-5.97-1.26-.07-.17,.13-.34,.28-.24Z" fill="#fff" stroke="#002346" stroke-miterlimit="10"></path>
    <g>
      <path d="M798.21,366.69v14.98c0,.97-.79,1.76-1.76,1.76h-79.78c-2.49,0-4.5-2.02-4.5-4.5v-9.49c0-2.49,2.02-4.5,4.5-4.5h79.78c.97,0,1.76,.79,1.76,1.76Z" fill="#fbe493" stroke="#002346" stroke-miterlimit="10"></path>
      <path d="M798.21,367.75v12.87h-27.41c-1.29,0-2.34-1.05-2.34-2.34v-8.18c0-1.29,1.05-2.34,2.34-2.34h27.41Z" fill="#fff" stroke="#002346" stroke-miterlimit="10"></path>
    </g>
    <g>
      <path d="M805.71,348.2v14.98c0,.97-.79,1.76-1.76,1.76h-79.78c-2.49,0-4.5-2.02-4.5-4.5v-9.49c0-2.49,2.02-4.5,4.5-4.5h79.78c.97,0,1.76,.79,1.76,1.76Z" fill="#f58f74" stroke="#002346" stroke-miterlimit="10"></path>
      <path d="M805.71,349.26v12.87h-27.41c-1.29,0-2.34-1.05-2.34-2.34v-8.18c0-1.29,1.05-2.34,2.34-2.34h27.41Z" fill="#fff" stroke="#002346" stroke-miterlimit="10"></path>
    </g>
    <g>
      <path d="M792.31,329.71v14.98c0,.97-.79,1.76-1.76,1.76h-79.78c-2.49,0-4.5-2.02-4.5-4.5v-9.49c0-2.49,2.02-4.5,4.5-4.5h79.78c.97,0,1.76,.79,1.76,1.76Z" fill="#e5e5e5" stroke="#002346" stroke-miterlimit="10"></path>
      <path d="M792.31,330.76v12.87h-27.41c-1.29,0-2.34-1.05-2.34-2.34v-8.18c0-1.29,1.05-2.34,2.34-2.34h27.41Z" fill="#fff" stroke="#002346" stroke-miterlimit="10"></path>
    </g>
    <path d="M388.18,562.25c-.67-3.14-.66-8.13,3.36-6.09,14.2,9.84,29.68,18.87,39.76,15.39,7.74-4.16,13.38-2.78,12.24,.79-2.33,2.46-5.89,4.86-9.01,6.72h-.01c.29,2.08-53.97,18.61-57.05,19.79-3.69,1.51-4.25-5.88-4.01-6.18,0-4.56-2.33-9.89-4.01-13.14-.77-1.49-1.68-2.9-2.64-4.27-1.18-1.69-1.68-2.99-1.81-3.97-.2-1.4,.85-2.68,2.25-2.89,3.82-.56,15.15-2.47,20.94-6.15Z" fill="#f58f74" stroke="#002346" stroke-miterlimit="10"></path>
    <path d="M431.21,579.78c-4.01,2.37-49.96,18.58-55.62,18.98-.15,.14-.23,.21-.23,.21,0,0-.3,1-.4,2.34-.28,3.69,3.39,6.46,6.84,5.12,19.02-7.35,49.44-13,65.53-28.67,1.22-1.19,1.33-3.11,.27-4.44-.83-1.04-2.11-2.14-4.04-2.8,0,0-6.03,5.51-12.34,9.24Z" fill="#fff" stroke="#002346" stroke-miterlimit="10"></path>
    <path d="M201.21,373.78l6,1s4-19-1-33" fill="none" stroke="#002346" stroke-linecap="round" stroke-linejoin="round"></path>
    <path d="M216.71,294.28s1,3,0,5" fill="none" stroke="#002346" stroke-linecap="round" stroke-linejoin="round"></path>
  </g>
  <circle cx="738.21" cy="129.78" r="79" fill="none" stroke="#2a2c45" stroke-linecap="round" stroke-linejoin="round"></circle>
  <circle cx="738.21" cy="129.78" r="68" fill="none" stroke="#2a2c45" stroke-linecap="round" stroke-linejoin="round"></circle>
  <circle cx="738.21" cy="129.78" r="60" fill="none" stroke="#2a2c45" stroke-linecap="round" stroke-linejoin="round"></circle>
  <circle cx="738.71" cy="31.28" r="4.5" fill="#002346" stroke="#002346" stroke-miterlimit="10"></circle>
  <line x1="734.26" y1="33.09" x2="716.72" y2="53.92" fill="none" stroke="#2a2c45" stroke-linecap="round" stroke-linejoin="round"></line>
  <line x1="743.03" y1="32.73" x2="759.84" y2="53.92" fill="none" stroke="#2a2c45" stroke-linecap="round" stroke-linejoin="round"></line>
  <polyline points="692.49 168.14 723.21 135.78 775.48 175.81" fill="none" stroke="#2a2c45" stroke-linecap="round" stroke-linejoin="round"></polyline>
  <polyline points="744.36 151.36 766.21 122.78 796.71 142.46" fill="none" stroke="#2a2c45" stroke-linecap="round" stroke-linejoin="round"></polyline>
  <circle cx="739.21" cy="119.78" r="9" fill="#fbe493" stroke="#002346" stroke-miterlimit="10"></circle>
  <ellipse cx="130.2" cy="106.01" rx="65.34" ry="80.73" fill="none" stroke="#2a2c45" stroke-linecap="round" stroke-linejoin="round"></ellipse>
  <ellipse cx="130.2" cy="106.01" rx="55.38" ry="67.39" fill="none" stroke="#2a2c45" stroke-linecap="round" stroke-linejoin="round"></ellipse>
  <line x1="130.49" y1="49.02" x2="130.49" y2="43.16" fill="none" stroke="#002346" stroke-linecap="round" stroke-linejoin="round"></line>
  <line x1="153.94" y1="56.63" x2="156.28" y2="51.36" fill="none" stroke="#002346" stroke-linecap="round" stroke-linejoin="round"></line>
  <line x1="170.93" y1="77.73" x2="175.62" y2="74.8" fill="none" stroke="#002346" stroke-linecap="round" stroke-linejoin="round"></line>
  <line x1="177.38" y1="106.45" x2="182.65" y2="106.45" fill="none" stroke="#002346" stroke-linecap="round" stroke-linejoin="round"></line>
  <line x1="170.93" y1="135.16" x2="175.03" y2="138.68" fill="none" stroke="#002346" stroke-linecap="round" stroke-linejoin="round"></line>
  <line x1="153.94" y1="156.26" x2="155.69" y2="160.95" fill="none" stroke="#002346" stroke-linecap="round" stroke-linejoin="round"></line>
  <line x1="130.49" y1="164.47" x2="130.49" y2="170.33" fill="none" stroke="#002346" stroke-linecap="round" stroke-linejoin="round"></line>
  <line x1="107.05" y1="156.26" x2="104.71" y2="162.12" fill="none" stroke="#002346" stroke-linecap="round" stroke-linejoin="round"></line>
  <line x1="90.64" y1="135.16" x2="85.96" y2="138.68" fill="none" stroke="#002346" stroke-linecap="round" stroke-linejoin="round"></line>
  <line x1="78.34" y1="106.45" x2="83.61" y2="106.45" fill="none" stroke="#002346" stroke-linecap="round" stroke-linejoin="round"></line>
  <line x1="90.06" y1="77.73" x2="85.96" y2="74.8" fill="none" stroke="#002346" stroke-linecap="round" stroke-linejoin="round"></line>
  <line x1="104.71" y1="51.36" x2="107.05" y2="56.05" fill="none" stroke="#002346" stroke-linecap="round" stroke-linejoin="round"></line>
  <polygon points="124.63 109.96 122.88 114.65 127.56 114.65 156.28 94.14 124.63 109.96" fill="#fbe493" stroke="#002346" stroke-miterlimit="10"></polygon>
  <polygon points="118.77 72.46 136.94 126.37 141.04 128.72 141.04 123.44 118.77 72.46" fill="#f58f74" stroke="#002346" stroke-linecap="round" stroke-linejoin="round"></polygon>
</svg>
